<svg id="Layer_1" data-name="Layer 1" xmlns="http://www.w3.org/2000/svg" viewBox="0 0 64 64"><defs><style>.cls-1{fill:#fb7555;}.cls-2{fill:#c43e20;}.cls-3{fill:#fff;}</style></defs><title>mark-fullcolor</title><path class="cls-1" d="M32,56A24,24,0,1,1,56,32V56Z"/><path class="cls-2" d="M56,58H32A26,26,0,1,1,58,32V56A2,2,0,0,1,56,58ZM32,10a22,22,0,0,0,0,44H54V32A22,22,0,0,0,32,10Z"/><path class="cls-3" d="M41,25H23a2,2,0,0,1,0-4H41a2,2,0,0,1,0,4Z"/><path class="cls-3" d="M41,43H23a2,2,0,0,1,0-4H41a2,2,0,0,1,0,4Z"/><path class="cls-3" d="M47,34H17a2,2,0,0,1,0-4H47a2,2,0,0,1,0,4Z"/></svg>